<?xml version="1.0" encoding="UTF-8" standalone="no"?> <svg xmlns="http://www.w3.org/2000/svg" viewBox="0 0 64 48"><defs><style>.cls-1{fill:#35353d;}</style></defs><title>Asset 22</title><g id="Layer_2" data-name="Layer 2"><g id="Layer_1-2" data-name="Layer 1"><path class="cls-1" d="M63.47,5.17A8,8,0,0,0,56,0H8A8,8,0,0,0,.48,5.33,7.44,7.44,0,0,0,0,8V40a8,8,0,0,0,5,7.41A7.85,7.85,0,0,0,8,48H56a7.32,7.32,0,0,0,2.85-.56A7.84,7.84,0,0,0,63,43.89,8,8,0,0,0,64,40V8A7.86,7.86,0,0,0,63.47,5.17ZM5.33,8A2.68,2.68,0,0,1,8,5.33H56A2.68,2.68,0,0,1,58.67,8v.51l-21.26,16L33,27.92l-1,.75-1-.78-4.46-3.33L5.33,8.61Zm0,32V15.28L22.11,27.89,5.39,40.45A2,2,0,0,1,5.33,40Zm6,2.67L26.56,31.23l3.84,2.9a2.64,2.64,0,0,0,3.2,0l3.81-2.88L52.53,42.67ZM58.67,40a2,2,0,0,1-.08.56L41.84,27.89,58.67,15.17Z"/></g></g></svg>