<?xml version="1.0" standalone="no"?>
<!DOCTYPE svg PUBLIC "-//W3C//DTD SVG 20010904//EN"
 "http://www.w3.org/TR/2001/REC-SVG-20010904/DTD/svg10.dtd">
<svg version="1.0" xmlns="http://www.w3.org/2000/svg"
 width="26.000000pt" height="26.000000pt" viewBox="0 0 26.000000 26.000000"
 preserveAspectRatio="xMidYMid meet">

<g transform="translate(0.000000,26.000000) scale(0.100000,-0.100000)"
fill="#000000" stroke="none">
<path d="M113 244 c-8 -21 13 -42 28 -27 13 13 5 43 -11 43 -6 0 -13 -7 -17
-16z"/>
<path d="M62 164 c-34 -35 -37 -64 -7 -64 9 0 18 8 21 18 17 52 24 55 19 7 -3
-28 -14 -63 -26 -78 -15 -20 -18 -32 -11 -39 15 -15 45 -1 38 18 -6 16 19 74
32 74 13 0 41 -60 36 -75 -7 -18 23 -32 38 -17 7 7 4 19 -11 39 -12 15 -23 50
-26 78 -5 48 2 45 19 -7 7 -22 34 -24 42 -4 3 9 -9 30 -30 50 -48 48 -88 48
-134 0z m2 -45 c-3 -5 -10 -7 -15 -3 -5 3 -7 10 -3 15 3 5 10 7 15 3 5 -3 7
-10 3 -15z m150 0 c-3 -5 -10 -7 -15 -3 -5 3 -7 10 -3 15 3 5 10 7 15 3 5 -3
7 -10 3 -15z m-130 -100 c-3 -5 -10 -7 -15 -3 -5 3 -7 10 -3 15 3 5 10 7 15 3
5 -3 7 -10 3 -15z m110 0 c-3 -5 -10 -7 -15 -3 -5 3 -7 10 -3 15 3 5 10 7 15
3 5 -3 7 -10 3 -15z"/>
</g>
</svg>
